name analog
datacolumns 19
datarows 46
range 0.166 0.1885
endheader
time	ground_force_vx	ground_force_vy	ground_force_vz	ground_force_px	ground_force_py	ground_force_pz	l_ground_force_vx	l_ground_force_vy	l_ground_force_vz	l_ground_force_px	l_ground_force_py	l_ground_force_pz	ground_torque_x	ground_torque_y	ground_torque_z	l_ground_torque_x	l_ground_torque_y	l_ground_torque_z
0.166	-0.0	-0.0	-0.0	-0.0	-0.0	-0.0	-8.679765701293945	4.01517915725708	-736.6036987304688	-0.0	-0.0	-0.0	-0.0	-0.0	-0.0	228350.34375	13583.49609375	-3777.13134765625
0.1665	-0.0	-0.0	-0.0	-0.0	-0.0	-0.0	-9.420207977294922	3.899391889572144	-735.8593139648438	-0.0	-0.0	-0.0	-0.0	-0.0	-0.0	227804.109375	13926.2900390625	-3871.19970703125
0.167	-0.0	-0.0	-0.0	-0.0	-0.0	-0.0	-9.77501106262207	3.586672306060791	-734.7232666015625	-0.0	-0.0	-0.0	-0.0	-0.0	-0.0	227438.453125	14551.513671875	-3942.152099609375
0.1675	-0.0	-0.0	-0.0	-0.0	-0.0	-0.0	-10.232256889343262	2.947824478149414	-733.0839233398438	-0.0	-0.0	-0.0	-0.0	-0.0	-0.0	227147.859375	14836.068359375	-4101.0556640625
0.168	-0.0	-0.0	-0.0	-0.0	-0.0	-0.0	-10.911426544189451	2.5539443492889404	-731.47265625	-0.0	-0.0	-0.0	-0.0	-0.0	-0.0	226630.8125	15153.138671875	-4189.7412109375
0.1685	-0.0	-0.0	-0.0	-0.0	-0.0	-0.0	-11.580458641052246	1.8783509731292725	-729.182373046875	-0.0	-0.0	-0.0	-0.0	-0.0	-0.0	226136.859375	15862.66015625	-4286.91162109375
0.169	-0.0	-0.0	-0.0	-0.0	-0.0	-0.0	-12.408096313476562	1.3161873817443848	-727.3928833007812	-0.0	-0.0	-0.0	-0.0	-0.0	-0.0	225761.171875	16455.8828125	-4363.619140625
0.1695	-0.0	-0.0	-0.0	-0.0	-0.0	-0.0	-13.191840171813965	1.1779283285140991	-726.1710205078125	-0.0	-0.0	-0.0	-0.0	-0.0	-0.0	225286.015625	16945.390625	-4532.83544921875
0.17	-0.0	-0.0	-0.0	-0.0	-0.0	-0.0	-13.95220947265625	0.9479556679725648	-724.9009399414062	-0.0	-0.0	-0.0	-0.0	-0.0	-0.0	224849.5625	17181.654296875	-4761.20849609375
0.1705	-0.0	-0.0	-0.0	-0.0	-0.0	-0.0	-14.290492057800291	1.2505723237991333	-723.5770263671875	-0.0	-0.0	-0.0	-0.0	-0.0	-0.0	224270.546875	17678.130859375	-4799.912109375
0.171	-0.0	-0.0	-0.0	-0.0	-0.0	-0.0	-15.125267028808594	1.5776855945587158	-723.6019287109375	-0.0	-0.0	-0.0	-0.0	-0.0	-0.0	224129.609375	17949.34375	-4969.6298828125
0.1715	-0.0	-0.0	-0.0	-0.0	-0.0	-0.0	-15.71152687072754	1.7181605100631714	-722.3152465820312	-0.0	-0.0	-0.0	-0.0	-0.0	-0.0	223934.46875	18277.466796875	-5220.14208984375
0.17200000000000001	-0.0	-0.0	-0.0	-0.0	-0.0	-0.0	-15.927769660949709	1.966412901878357	-721.1891479492188	-0.0	-0.0	-0.0	-0.0	-0.0	-0.0	223458.671875	18223.787109375	-5175.1689453125
0.17250000000000001	-0.0	-0.0	-0.0	-0.0	-0.0	-0.0	-15.594038009643556	2.420963764190674	-720.8502197265625	-0.0	-0.0	-0.0	-0.0	-0.0	-0.0	223514.0625	18520.0390625	-5104.57080078125
0.17300000000000001	-0.0	-0.0	-0.0	-0.0	-0.0	-0.0	-15.054925918579102	2.4773221015930176	-720.3619384765625	-0.0	-0.0	-0.0	-0.0	-0.0	-0.0	223465.3125	18261.15234375	-4957.2705078125
0.17350000000000002	-0.0	-0.0	-0.0	-0.0	-0.0	-0.0	-14.548711776733398	2.6362948417663574	-719.9159545898438	-0.0	-0.0	-0.0	-0.0	-0.0	-0.0	223289.6875	17838.654296875	-4779.97802734375
0.17400000000000002	-0.0	-0.0	-0.0	-0.0	-0.0	-0.0	-13.435250282287598	2.177123069763184	-719.51416015625	-0.0	-0.0	-0.0	-0.0	-0.0	-0.0	223139.796875	17653.564453125	-4517.93603515625
0.17450000000000002	-0.0	-0.0	-0.0	-0.0	-0.0	-0.0	-12.20686149597168	1.8535914421081543	-717.5635986328125	-0.0	-0.0	-0.0	-0.0	-0.0	-0.0	222600.0	17561.767578125	-4199.697265625
0.17500000000000002	-0.0	-0.0	-0.0	-0.0	-0.0	-0.0	-11.240148544311523	1.687220811843872	-715.1343994140625	-0.0	-0.0	-0.0	-0.0	-0.0	-0.0	221793.71875	17366.791015625	-3910.44091796875
0.17550000000000002	-0.0	-0.0	-0.0	-0.0	-0.0	-0.0	-11.130855560302734	1.6994882822036743	-712.7146606445312	-0.0	-0.0	-0.0	-0.0	-0.0	-0.0	221223.28125	17052.34765625	-3855.956298828125
0.176	-0.0	-0.0	-0.0	-0.0	-0.0	-0.0	-11.238340377807615	1.422415852546692	-710.5968017578125	-0.0	-0.0	-0.0	-0.0	-0.0	-0.0	220432.328125	17217.3828125	-4019.326171875
0.1765	-0.0	-0.0	-0.0	-0.0	-0.0	-0.0	-11.911250114440918	0.925017237663269	-709.435302734375	-0.0	-0.0	-0.0	-0.0	-0.0	-0.0	219942.140625	17138.513671875	-4281.25146484375
0.177	-0.0	-0.0	-0.0	-0.0	-0.0	-0.0	-12.636518478393556	0.8731293082237244	-708.2320556640625	-0.0	-0.0	-0.0	-0.0	-0.0	-0.0	219607.03125	17113.56640625	-4465.00341796875
0.1775	-0.0	-0.0	-0.0	-0.0	-0.0	-0.0	-13.087278366088867	1.1970789432525637	-705.7520141601562	-0.0	-0.0	-0.0	-0.0	-0.0	-0.0	218969.015625	17404.658203125	-4613.47119140625
0.178	-0.0	-0.0	-0.0	-0.0	-0.0	-0.0	-13.572750091552734	1.1088939905166626	-704.0064697265625	-0.0	-0.0	-0.0	-0.0	-0.0	-0.0	218670.0	17377.64453125	-4623.76611328125
0.1785	-0.0	-0.0	-0.0	-0.0	-0.0	-0.0	-13.378043174743652	1.108922839164734	-703.9674072265625	-0.0	-0.0	-0.0	-0.0	-0.0	-0.0	218525.234375	17265.6015625	-4546.208984375
0.179	-0.0	-0.0	-0.0	-0.0	-0.0	-0.0	-13.064722061157228	1.2265143394470217	-703.3658447265625	-0.0	-0.0	-0.0	-0.0	-0.0	-0.0	218285.5625	17279.421875	-4478.43310546875
0.1795	-0.0	-0.0	-0.0	-0.0	-0.0	-0.0	-13.0031099319458	1.8526042699813845	-703.7838134765625	-0.0	-0.0	-0.0	-0.0	-0.0	-0.0	218414.03125	17279.54296875	-4413.0322265625
0.18	-0.0	-0.0	-0.0	-0.0	-0.0	-0.0	-12.922808647155762	2.0109691619873047	-704.3931884765625	-0.0	-0.0	-0.0	-0.0	-0.0	-0.0	218562.546875	17285.224609375	-4537.59228515625
0.1805	-0.0	-0.0	-0.0	-0.0	-0.0	-0.0	-13.00131607055664	2.719886779785156	-704.1412353515625	-0.0	-0.0	-0.0	-0.0	-0.0	-0.0	218826.421875	16945.048828125	-4540.423828125
0.181	-0.0	-0.0	-0.0	-0.0	-0.0	-0.0	-13.313403129577637	2.796477794647217	-706.425537109375	-0.0	-0.0	-0.0	-0.0	-0.0	-0.0	219447.046875	16691.32421875	-4626.78564453125
0.1815	-0.0	-0.0	-0.0	-0.0	-0.0	-0.0	-12.944551467895508	2.865128755569458	-708.6244506835938	-0.0	-0.0	-0.0	-0.0	-0.0	-0.0	220079.6875	16184.07421875	-4509.0888671875
0.182	-0.0	-0.0	-0.0	-0.0	-0.0	-0.0	-11.571388244628906	3.4445457458496094	-710.98388671875	-0.0	-0.0	-0.0	-0.0	-0.0	-0.0	220796.5	15752.26953125	-4163.9111328125
0.1825	-0.0	-0.0	-0.0	-0.0	-0.0	-0.0	-10.492741584777832	3.782875061035156	-713.6809692382812	-0.0	-0.0	-0.0	-0.0	-0.0	-0.0	221524.71875	15185.53515625	-3837.865234375
0.183	-0.0	-0.0	-0.0	-0.0	-0.0	-0.0	-9.630663871765137	3.711915016174317	-715.6077880859375	-0.0	-0.0	-0.0	-0.0	-0.0	-0.0	222154.296875	14537.7353515625	-3710.2216796875
0.1835	-0.0	-0.0	-0.0	-0.0	-0.0	-0.0	-9.055381774902344	3.310641050338745	-717.795654296875	-0.0	-0.0	-0.0	-0.0	-0.0	-0.0	223133.265625	13759.2744140625	-3506.423828125
0.184	-0.0	-0.0	-0.0	-0.0	-0.0	-0.0	-8.006387710571289	3.245584011077881	-720.6930541992188	-0.0	-0.0	-0.0	-0.0	-0.0	-0.0	223772.3125	13352.6376953125	-3145.510009765625
0.1845	-0.0	-0.0	-0.0	-0.0	-0.0	-0.0	-7.642154693603516	3.492756128311157	-723.6436157226562	-0.0	-0.0	-0.0	-0.0	-0.0	-0.0	224262.796875	12668.021484375	-2991.30322265625
0.185	-0.0	-0.0	-0.0	-0.0	-0.0	-0.0	-7.13907527923584	3.1218457221984863	-723.0929565429688	-0.0	-0.0	-0.0	-0.0	-0.0	-0.0	224098.171875	12574.1689453125	-2621.180908203125
0.1855	-0.0	-0.0	-0.0	-0.0	-0.0	-0.0	-6.88470458984375	1.8067799806594849	-721.9163208007812	-0.0	-0.0	-0.0	-0.0	-0.0	-0.0	223525.0	12428.58984375	-2430.418212890625
0.186	-0.0	-0.0	-0.0	-0.0	-0.0	-0.0	-6.907753467559815	0.706573486328125	-720.2537841796875	-0.0	-0.0	-0.0	-0.0	-0.0	-0.0	222500.125	12725.134765625	-2585.5048828125
0.1865	-0.0	-0.0	-0.0	-0.0	-0.0	-0.0	-8.389885902404785	-0.3386268317699432	-718.3384399414062	-0.0	-0.0	-0.0	-0.0	-0.0	-0.0	222012.1875	12677.779296875	-2853.31396484375
0.187	-0.0	-0.0	-0.0	-0.0	-0.0	-0.0	-9.390073776245115	-0.8140190243721008	-715.13818359375	-0.0	-0.0	-0.0	-0.0	-0.0	-0.0	221235.59375	13100.2490234375	-3179.398681640625
0.1875	-0.0	-0.0	-0.0	-0.0	-0.0	-0.0	-10.478466987609863	-1.3845407962799072	-715.4830322265625	-0.0	-0.0	-0.0	-0.0	-0.0	-0.0	220754.546875	13336.8828125	-3444.288330078125
0.188	-0.0	-0.0	-0.0	-0.0	-0.0	-0.0	-10.707942008972168	-1.842613935470581	-713.8164672851562	-0.0	-0.0	-0.0	-0.0	-0.0	-0.0	220616.234375	13293.8603515625	-3453.190185546875
0.1885	-0.0	-0.0	-0.0	-0.0	-0.0	-0.0	-10.470391273498535	-1.5398393869400024	-712.9035034179688	-0.0	-0.0	-0.0	-0.0	-0.0	-0.0	220151.234375	13394.7744140625	-3406.236572265625
